<?xml version="1.0" standalone="no"?>
<!DOCTYPE svg PUBLIC "-//W3C//DTD SVG 20010904//EN"
 "http://www.w3.org/TR/2001/REC-SVG-20010904/DTD/svg10.dtd">
<svg version="1.0" xmlns="http://www.w3.org/2000/svg"
 width="534.000000pt" height="534.000000pt" viewBox="0 0 534.000000 534.000000"
 preserveAspectRatio="xMidYMid meet">
<metadata>
Created by potrace 1.11, written by Peter Selinger 2001-2013
</metadata>
<g transform="translate(0.000000,534.000000) scale(0.100000,-0.100000)"
fill="#000000" stroke="none">
<path d="M1241 4790 c-10 -8 -28 -35 -39 -60 -35 -80 -388 -869 -429 -960 -14
-30 -100 -221 -190 -425 -91 -203 -195 -435 -230 -515 -36 -80 -65 -155 -65
-167 0 -12 10 -44 22 -70 12 -26 40 -88 62 -138 22 -49 51 -115 65 -145 14
-30 81 -179 148 -331 68 -151 135 -300 148 -330 14 -30 51 -112 82 -184 32
-71 75 -168 96 -213 22 -46 39 -85 39 -87 0 -2 15 -36 34 -77 18 -40 66 -147
106 -238 124 -283 138 -310 163 -318 12 -5 656 -8 1430 -8 l1408 1 17 23 c9
12 48 93 86 180 39 86 82 184 97 217 15 33 87 193 159 355 117 262 392 878
440 985 10 22 39 87 65 145 26 58 58 130 73 160 14 30 25 64 24 75 -1 11 -94
227 -208 480 -113 253 -217 485 -230 515 -135 320 -505 1125 -520 1133 -13 8
-451 11 -1427 11 -1236 1 -1409 -1 -1426 -14z"/>
</g>
</svg>
